<?xml version="1.0" encoding="UTF-8"?>
<svg version="1.1" xmlns="http://www.w3.org/2000/svg" width="173" height="156">
<path d="M0 0 C8.51941634 7.85790872 13.63138183 18.875618 14.28125 30.39453125 C14.03033582 53.32181417 -2.84788521 66.55818663 -17.8671875 81.66235352 C-19.30067741 83.10749381 -20.72965544 84.55712231 -22.15429688 86.01098633 C-24.24418074 88.14349658 -26.34696918 90.2624798 -28.453125 92.37890625 C-29.08244934 93.02573868 -29.71177368 93.67257111 -30.36016846 94.33900452 C-35.51219303 99.46610049 -40.12746443 102.40437625 -47.60522461 102.4284668 C-49.4546557 102.36219528 -51.30372426 102.28520266 -53.15234375 102.19921875 C-55.19849135 102.15811424 -57.24472531 102.12114031 -59.29101562 102.08789062 C-62.48035602 102.02464591 -65.66079743 101.93882677 -68.84692383 101.78051758 C-82.67377506 100.951384 -82.67377506 100.951384 -94.68017578 106.86572266 C-98.17270803 110.22161306 -101.29000208 113.82535756 -104.20899963 117.68855286 C-106.04383991 119.54773873 -107.16833715 119.98394386 -109.75 120.25 C-112.5335098 119.02007706 -114.26135875 118.13566226 -115.75 115.4375 C-115.75 112.05362236 -114.4926172 110.144665 -112.75 107.25 C-111.20706177 105.83563232 -111.20706177 105.83563232 -109.43188477 104.44091797 C-103.54494425 99.78510092 -98.70160293 95.57444419 -97.59326172 87.84082031 C-97.16574879 81.67695808 -97.4037682 75.54036413 -97.6875 69.375 C-97.78437218 66.19875207 -97.86058984 63.02399085 -97.91004944 59.84664917 C-97.94557252 57.88467893 -98.01038694 55.92293481 -98.10984802 53.96316528 C-98.36887927 44.88568509 -94.78848804 40.31223084 -88.76098633 33.85693359 C-87.20960963 32.27925495 -85.64950229 30.710127 -84.08203125 29.1484375 C-83.24717697 28.30834137 -82.41232269 27.46824524 -81.5521698 26.60269165 C-79.79172656 24.8358527 -78.02743452 23.07284116 -76.25952148 21.31347656 C-73.57591594 18.63837343 -70.91148749 15.94516288 -68.24804688 13.25 C-66.52717363 11.52751419 -64.80520359 9.8061233 -63.08203125 8.0859375 C-61.90336235 6.89041763 -61.90336235 6.89041763 -60.70088196 5.67074585 C-43.70133774 -11.12004246 -19.67270091 -15.36262978 0 0 Z M-55.41796875 18.26171875 C-56.26426346 19.1117598 -57.11055817 19.96180084 -57.98249817 20.83760071 C-59.7497505 22.61818963 -61.50984905 24.4059056 -63.26293945 26.20043945 C-65.95452888 28.95492682 -68.66743009 31.6869453 -71.38476562 34.41601562 C-73.10543058 36.15500031 -74.82487699 37.89519174 -76.54296875 39.63671875 C-77.3532402 40.45548996 -78.16351166 41.27426117 -78.99833679 42.11784363 C-79.74033829 42.87906021 -80.48233978 43.64027679 -81.24682617 44.42456055 C-81.90124191 45.09263229 -82.55565765 45.76070404 -83.22990417 46.44902039 C-86.20999771 49.97977655 -85.86697339 53.46309401 -85.84765625 57.88671875 C-85.84443359 59.18544922 -85.84121094 60.48417969 -85.83789062 61.82226562 C-85.82953531 63.19401108 -85.82107037 64.56575587 -85.8125 65.9375 C-85.80748335 67.32096195 -85.80292073 68.70442563 -85.79882812 70.08789062 C-85.78702529 73.47530395 -85.77056019 76.86263033 -85.75 80.25 C-85.09 80.25 -84.43 80.25 -83.75 80.25 C-82.28636365 78.8120062 -82.28636365 78.8120062 -80.75610352 76.89599609 C-76.29703494 71.656736 -71.49563312 66.79677584 -66.65234375 61.9140625 C-65.94505725 61.20066271 -65.94505725 61.20066271 -65.22348213 60.4728508 C-62.7361287 57.96483065 -60.24565224 55.45995957 -57.75268555 52.95751953 C-55.18999162 50.38368479 -52.63921056 47.79836123 -50.09076595 45.21042824 C-48.11480303 43.20830397 -46.12998941 41.21513295 -44.1427021 39.22425461 C-42.74154516 37.81590105 -41.35002982 36.39797614 -39.95872498 34.97988892 C-39.10085892 34.12494843 -38.24299286 33.27000793 -37.35913086 32.38916016 C-36.61191269 31.63607574 -35.86469452 30.88299133 -35.09483337 30.10708618 C-32.39257081 27.96691941 -30.08482351 27.06984203 -26.75 26.25 C-24.4375 26.875 -24.4375 26.875 -22.75 28.25 C-21.8125 30.0625 -21.8125 30.0625 -21.75 32.25 C-24.05449283 36.93400371 -27.48467912 40.22787925 -31.16796875 43.828125 C-31.78521317 44.44016785 -32.40245758 45.05221069 -33.03840637 45.68280029 C-35.00005422 47.62670656 -36.96829329 49.56375374 -38.9375 51.5 C-40.91650118 53.45141845 -42.89403284 55.40427109 -44.86872864 57.36004639 C-46.09573551 58.57475412 -47.32540461 59.78677941 -48.5579071 60.99591064 C-49.97401102 62.3952266 -51.3648969 63.81999131 -52.75 65.25 C-52.75 65.58 -52.75 65.91 -52.75 66.25 C-33.17033148 68.78996682 -33.17033148 68.78996682 -15.23828125 63.00390625 C-7.50910562 55.90123649 0.4421784 45.54010362 1.48828125 34.8046875 C1.7156034 26.59716158 -0.15666476 20.47617595 -4.4375 13.5 C-11.07452067 7.04235827 -18.10630646 3.30299598 -27.375 2.75 C-39.14705709 3.08015572 -47.55413267 10.1514547 -55.41796875 18.26171875 Z M-74.36352539 86.10571289 C-75.93099125 88.10433594 -75.93099125 88.10433594 -75.75 90.25 C-71.7115943 90.3244389 -67.67345707 90.37873729 -63.63452148 90.41479492 C-62.26205483 90.42983432 -60.88963586 90.45027133 -59.51733398 90.47631836 C-57.53911344 90.51291221 -55.56053486 90.52816698 -53.58203125 90.54296875 C-52.39327393 90.5586792 -51.2045166 90.57438965 -49.97973633 90.59057617 C-44.69573297 90.03337724 -41.55276812 87.32690853 -37.9375 83.625 C-37.03064453 82.70847656 -37.03064453 82.70847656 -36.10546875 81.7734375 C-34.63921326 80.46534398 -34.63921326 80.46534398 -34.75 79.25 C-39.14218998 79.02553672 -43.53124996 78.86333102 -47.92749023 78.75561523 C-49.41864218 78.71067288 -50.90940464 78.64948824 -52.39916992 78.57104492 C-61.78942983 78.08941242 -67.86831906 78.46299213 -74.36352539 86.10571289 Z " fill="#4803F7" transform="translate(133.75,19.75)"/>
<path d="M0 0 C0 3 0 3 -2.47851562 5.8190918 C-3.61342476 6.9535252 -4.75660841 8.07971791 -5.90625 9.19921875 C-6.50554321 9.79426712 -7.10483643 10.38931549 -7.72229004 11.00239563 C-9.64128092 12.90457052 -11.57043112 14.79606205 -13.5 16.6875 C-14.80146301 17.97392 -16.10225318 19.2610211 -17.40234375 20.54882812 C-20.59380369 23.70718002 -23.79441498 26.85598797 -27 30 C-25.35 29.01 -23.7 28.02 -22 27 C-21.34298096 27.65194336 -20.68596191 28.30388672 -20.0090332 28.97558594 C-16.230474 31.51772086 -13.24477615 31.51311869 -8.85546875 31.390625 C-7.7007885 31.38213531 -7.7007885 31.38213531 -6.52278137 31.37347412 C-4.07704057 31.35117872 -1.6327939 31.30099875 0.8125 31.25 C2.47589022 31.229926 4.13930353 31.2116768 5.80273438 31.1953125 C9.86906058 31.15133684 13.93427744 31.08235979 18 31 C18 31.33 18 31.66 18 32 C17.07251953 31.98839844 16.14503906 31.97679688 15.18945312 31.96484375 C11.7141098 31.9405285 8.24263197 31.95231783 4.76757812 31.98779297 C3.27019122 31.99585384 1.77265609 31.98994235 0.27539062 31.96923828 C-8.64421772 31.68488501 -8.64421772 31.68488501 -16.78125 34.77734375 C-19.35787584 37.32176177 -21.38008856 39.76017713 -23 43 C-18.96095079 42.93089442 -14.92279422 42.84281984 -10.88452148 42.73754883 C-9.51224042 42.70440194 -8.13982638 42.67633829 -6.76733398 42.65356445 C-4.78862234 42.61983234 -2.81028624 42.5659851 -0.83203125 42.51171875 C0.35672607 42.48553467 1.5454834 42.45935059 2.77026367 42.43237305 C7.84042349 41.75361781 11.06330015 39.12061751 14.8125 35.8125 C15.41707031 35.28269531 16.02164063 34.75289062 16.64453125 34.20703125 C17.09183594 33.80871094 17.53914063 33.41039062 18 33 C17.68933594 33.60585937 17.37867188 34.21171875 17.05859375 34.8359375 C15.93090889 37.0391855 15.93090889 37.0391855 15.0625 39.625 C14 42 14 42 11 44 C8.31405085 44.17162025 5.73455099 44.23224552 3.05078125 44.1953125 C1.89185616 44.19106766 1.89185616 44.19106766 0.70951843 44.18673706 C-1.75631243 44.17554878 -4.22177906 44.15044703 -6.6875 44.125 C-8.36002079 44.11496843 -10.03254728 44.10584289 -11.70507812 44.09765625 C-15.80352559 44.07561392 -19.90170106 44.04109363 -24 44 C-24 42.02 -24 40.04 -24 38 C-23.34 38 -22.68 38 -22 38 C-24.1385485 35.8614515 -25.13275314 35.57344937 -28 35 C-28 34.34 -28 33.68 -28 33 C-28.99 33 -29.98 33 -31 33 C-29.70280076 30.14220983 -28.3363174 28.08991464 -26.11083984 25.88378906 C-25.5303891 25.30348938 -24.94993835 24.7231897 -24.35189819 24.12530518 C-23.72788116 23.51161072 -23.10386414 22.89791626 -22.4609375 22.265625 C-21.82008209 21.62759949 -21.17922668 20.98957397 -20.51895142 20.33221436 C-18.47562179 18.30005931 -16.42544018 16.27497782 -14.375 14.25 C-12.9865214 12.8715547 -11.5984951 11.49265364 -10.2109375 10.11328125 C-6.81251303 6.73688106 -3.40792746 3.36680712 0 0 Z " fill="#4814D7" transform="translate(81,67)"/>
<path d="M0 0 C0.66 0.33 1.32 0.66 2 1 C-0.618798 5.36466333 -2.69596597 7.43807498 -7 10 C-9.12729908 12.23290967 -11.07806189 14.58932162 -13 17 C-12.01 17.99 -11.02 18.98 -10 20 C-10.66 20 -11.32 20 -12 20 C-10.68 21.65 -9.36 23.3 -8 25 C-10.21250976 29.06603616 -12.83118776 32.071504 -16.125 35.3125 C-17.01445313 36.19550781 -17.90390625 37.07851563 -18.8203125 37.98828125 C-21 40 -21 40 -22 40 C-22.125 35.25 -22.125 35.25 -21 33 C-19.35636866 32.27840576 -17.68949614 31.60648579 -16 31 C-16.99 28.03 -17.98 25.06 -19 22 C-20.44379943 23.38931643 -21.87977512 24.78676578 -23.3125 26.1875 C-24.11300781 26.96480469 -24.91351563 27.74210937 -25.73828125 28.54296875 C-28.07740227 30.91251009 -28.07740227 30.91251009 -29.625 33.75 C-31 36 -31 36 -33.6875 36.8125 C-34.450625 36.874375 -35.21375 36.93625 -36 37 C-31.82222235 32.01407125 -27.46872723 27.33295716 -22.8515625 22.75390625 C-22.19417084 22.09792953 -21.53677917 21.44195282 -20.85946655 20.76609802 C-18.78367138 18.69584732 -16.70440573 16.62912349 -14.625 14.5625 C-13.2067992 13.14932138 -11.78882824 11.73591206 -10.37109375 10.32226562 C-6.91671223 6.87883935 -3.4592163 3.43856901 0 0 Z " fill="#4805F4" transform="translate(80,19)"/>
<path d="M0 0 C2.875 1.4375 2.875 1.4375 4.4375 3.75 C4.875 6.4375 4.875 6.4375 3.625 9.125 C1.875 11.4375 1.875 11.4375 -0.125 13.4375 C-1.45833333 13.10416667 -2.79166667 12.77083333 -4.125 12.4375 C-4.785 13.0975 -5.445 13.7575 -6.125 14.4375 C-8.25 14.0625 -8.25 14.0625 -10.125 13.4375 C-10.455 12.1175 -10.785 10.7975 -11.125 9.4375 C-15.68530824 13.24225422 -19.97589392 17.18719621 -24.125 21.4375 C-24.785 21.1075 -25.445 20.7775 -26.125 20.4375 C-23.04988875 17.30431721 -19.96355161 14.18243022 -16.875 11.0625 C-16.00230469 10.17304687 -15.12960938 9.28359375 -14.23046875 8.3671875 C-13.38613281 7.51640625 -12.54179688 6.665625 -11.671875 5.7890625 C-10.89682617 5.00354004 -10.12177734 4.21801758 -9.32324219 3.40869141 C-6.04540746 0.4694158 -4.4153633 -0.79476539 0 0 Z " fill="#490BEB" transform="translate(108.125,45.5625)"/>
<path d="M0 0 C2.3125 -0.3125 2.3125 -0.3125 5 0 C6.6875 2.5 6.6875 2.5 8 5 C8.66 5 9.32 5 10 5 C10 6.98 10 8.96 10 11 C8.02 11.99 6.04 12.98 4 14 C2.29115995 12.37660195 0.62553283 10.70680947 -1 9 C-1 8.34 -1 7.68 -1 7 C-1.66 7 -2.32 7 -3 7 C-2.67 5.35 -2.34 3.7 -2 2 C-1.34 2 -0.68 2 0 2 C0 1.34 0 0.68 0 0 Z " fill="#4A01FB" transform="translate(129,22)"/>
<path d="M0 0 C0 0.66 0 1.32 0 2 C-1.09054688 2.00386719 -1.09054688 2.00386719 -2.203125 2.0078125 C-12.84357619 2.41706062 -20.87704947 6.2038472 -29 13 C-29 11.68 -29 10.36 -29 9 C-28.34 9 -27.68 9 -27 9 C-27 8.34 -27 7.68 -27 7 C-26.401875 6.896875 -25.80375 6.79375 -25.1875 6.6875 C-22.94726886 6.17066708 -22.94726886 6.17066708 -21.578125 4.5625 C-15.83080076 -1.12792004 -7.44623186 -0.33508043 0 0 Z " fill="#4714D0" transform="translate(112,21)"/>
<path d="M0 0 C0 3 0 3 -1.49609375 4.5078125 C-2.13675781 5.04148437 -2.77742188 5.57515625 -3.4375 6.125 C-7.1588187 9.6287416 -7.83459979 12.25762069 -8.02734375 17.27734375 C-8.01380859 18.13005859 -8.01380859 18.13005859 -8 19 C-6.02 19 -4.04 19 -2 19 C-1.67 17.68 -1.34 16.36 -1 15 C-0.01 15.66 0.98 16.32 2 17 C-1.62365591 20.62365591 -1.62365591 20.62365591 -4 22 C-7.25 21.625 -7.25 21.625 -10 20 C-11.5625 17.75 -11.5625 17.75 -12 15 C-10.12546265 8.65541204 -4.67684663 4.41211947 0 0 Z " fill="#4A1ECA" transform="translate(30,118)"/>
<path d="M0 0 C0.69440186 0.08604492 1.38880371 0.17208984 2.10424805 0.26074219 C5.55945436 0.75767455 7.54781201 1.28187467 10.5 3.25 C7.86 3.58 5.22 3.91 2.5 4.25 C2.5 3.59 2.5 2.93 2.5 2.25 C-5.89004715 2.11394518 -14.14380043 2.49524649 -22.5 3.25 C-15.66996178 -1.30335881 -7.86491882 -0.97922023 0 0 Z " fill="#4A18D0" transform="translate(112.5,10.75)"/>
<path d="M0 0 C4.79667483 4.79667483 4.95836864 12.53048588 5 19 C4.53669953 23.04802936 3.84161453 27.01450312 3 31 C2.67 31 2.34 31 2 31 C1.97494385 30.27409668 1.9498877 29.54819336 1.92407227 28.80029297 C1.80758759 25.49170554 1.68509986 22.18336624 1.5625 18.875 C1.52318359 17.73289062 1.48386719 16.59078125 1.44335938 15.4140625 C1.40146484 14.30546875 1.35957031 13.196875 1.31640625 12.0546875 C1.27974854 11.03874512 1.24309082 10.02280273 1.20532227 8.97607422 C0.99535432 5.93266243 0.54938704 2.99914492 0 0 Z " fill="#4B19CC" transform="translate(143,34)"/>
<path d="M0 0 C0.66 0.33 1.32 0.66 2 1 C-0.62380463 5.37300772 -2.70146032 7.42087619 -7 10 C-8.64760066 11.51663081 -10.25248462 13.08091699 -11.8125 14.6875 C-12.99779297 15.89986328 -12.99779297 15.89986328 -14.20703125 17.13671875 C-15.09455078 18.05904297 -15.09455078 18.05904297 -16 19 C-16.66 18.67 -17.32 18.34 -18 18 C-12.06 12.06 -6.12 6.12 0 0 Z " fill="#4619C8" transform="translate(80,19)"/>
<path d="M0 0 C0 3 0 3 -1.86328125 5.0859375 C-2.67152344 5.84132813 -3.47976562 6.59671875 -4.3125 7.375 C-6.84909153 9.75228868 -8.84635638 11.74109573 -10.625 14.73828125 C-12 17 -12 17 -14.6875 17.8125 C-15.450625 17.874375 -16.21375 17.93625 -17 18 C-11.72898586 11.58930713 -5.90871848 5.81409488 0 0 Z " fill="#4315C6" transform="translate(61,38)"/>
<path d="M0 0 C2.31 0 4.62 0 7 0 C6.67 0.99 6.34 1.98 6 3 C6.66 3 7.32 3 8 3 C9.01866229 4.65532623 10.01810813 6.32260138 11 8 C11.66 8.33 12.32 8.66 13 9 C13.59355614 11.64860427 13.74209269 14.29197322 14 17 C13.34 16.01 12.68 15.02 12 14 C10.9790625 12.515 10.9790625 12.515 9.9375 11 C8 8 8 8 7 5 C5.6846659 4.29848848 4.34882408 3.63474075 3 3 C1.25 1.375 1.25 1.375 0 0 Z " fill="#4715D0" transform="translate(120,26)"/>
<path d="M0 0 C0.66 0.66 1.32 1.32 2 2 C-0.69409487 4.69409487 -8.27442288 3.4860369 -12.15527344 3.61254883 C-14.35929263 3.68696963 -16.56225651 3.77766237 -18.765625 3.86914062 C-20.16402802 3.91767055 -21.56246519 3.96522839 -22.9609375 4.01171875 C-24.87592041 4.08072388 -24.87592041 4.08072388 -26.82958984 4.15112305 C-30 4 -30 4 -33 2 C-31.55379272 1.96241577 -31.55379272 1.96241577 -30.07836914 1.92407227 C-26.51312158 1.83014694 -22.94807567 1.72989061 -19.38305664 1.62768555 C-17.83785711 1.58428015 -16.29260786 1.54260929 -14.74731445 1.50268555 C-12.53060904 1.44511801 -10.3141552 1.38138576 -8.09765625 1.31640625 C-7.4028566 1.29969376 -6.70805695 1.28298126 -5.99220276 1.26576233 C-2.71237971 1.43497144 -2.71237971 1.43497144 0 0 Z " fill="#4306F0" transform="translate(115,85)"/>
<path d="M0 0 C0.66 0.99 1.32 1.98 2 3 C-2.62 7.62 -7.24 12.24 -12 17 C-12 12.64964856 -9.81243379 10.20220043 -7 7 C-5.35394174 5.96642853 -3.69036558 4.95939668 -2 4 C-0.67206394 1.93299345 -0.67206394 1.93299345 0 0 Z " fill="#4413D0" transform="translate(130,82)"/>
<path d="M0 0 C0.66 0 1.32 0 2 0 C1.4520917 4.2829452 -0.02432804 6.85135641 -2.5625 10.3125 C-3.20316406 11.19550781 -3.84382812 12.07851562 -4.50390625 12.98828125 C-4.99761719 13.65214844 -5.49132812 14.31601563 -6 15 C-7.24546405 12.50907189 -6.7767578 11.58919267 -6 9 C-5.01 9 -4.02 9 -3 9 C-3.33 7.68 -3.66 6.36 -4 5 C-3.34 5 -2.68 5 -2 5 C-2 4.34 -2 3.68 -2 3 C-1.34 3 -0.68 3 0 3 C0 2.01 0 1.02 0 0 Z " fill="#4514D5" transform="translate(143,65)"/>
<path d="M0 0 C1.2518241 2.95885695 1.00203521 3.99475129 -0.1875 7.0625 C-1.9183668 9.86769792 -3.23492634 11.28374738 -6 13 C-6.66 12.67 -7.32 12.34 -8 12 C-7.59007813 11.46890625 -7.18015625 10.9378125 -6.7578125 10.390625 C-6.21898438 9.68421875 -5.68015625 8.9778125 -5.125 8.25 C-4.59132812 7.55390625 -4.05765625 6.8578125 -3.5078125 6.140625 C-2.10761086 4.15277397 -1.02144735 2.20156614 0 0 Z " fill="#4617CD" transform="translate(133,61)"/>
<path d="M0 0 C-1.1427919 1.16964602 -2.28931715 2.33564556 -3.4375 3.5 C-4.07558594 4.1496875 -4.71367188 4.799375 -5.37109375 5.46875 C-7 7 -7 7 -8 7 C-8.125 2.25 -8.125 2.25 -7 0 C-3.86650268 -1.04449911 -3.01031744 -0.93423645 0 0 Z " fill="#4712DD" transform="translate(66,52)"/>
<path d="M0 0 C1.65 0.33 3.3 0.66 5 1 C3.02 3.31 1.04 5.62 -1 8 C-1.66 6.68 -2.32 5.36 -3 4 C-2 2 -2 2 0 1 C0 0.67 0 0.34 0 0 Z " fill="#4711DF" transform="translate(53,58)"/>
<path d="M0 0 C0.66 0.33 1.32 0.66 2 1 C-0.97 3.97 -3.94 6.94 -7 10 C-7.66 8.68 -8.32 7.36 -9 6 C-7.68 6 -6.36 6 -5 6 C-5 5.34 -5 4.68 -5 4 C-3.37373596 2.61767557 -1.7074998 1.28062485 0 0 Z " fill="#4412CE" transform="translate(113,101)"/>
<path d="M0 0 C1.09651823 3.41139003 0.94215473 6.20655581 0.5625 9.75 C0.40974609 11.22726563 0.40974609 11.22726563 0.25390625 12.734375 C0.12822266 13.85585937 0.12822266 13.85585937 0 15 C-0.33 15 -0.66 15 -1 15 C-1.22304441 13.25181409 -1.4278645 11.50129677 -1.625 9.75 C-1.74101563 8.77546875 -1.85703125 7.8009375 -1.9765625 6.796875 C-2.00112537 3.86570607 -1.5312717 2.45471036 0 0 Z " fill="#450BE0" transform="translate(38,62)"/>
<path d="M0 0 C0.33 0.66 0.66 1.32 1 2 C1.66 2.33 2.32 2.66 3 3 C1.35 4.32 -0.3 5.64 -2 7 C-2 6.34 -2 5.68 -2 5 C-2.66 4.67 -3.32 4.34 -4 4 C-2.68 2.68 -1.36 1.36 0 0 Z " fill="#490BE3" transform="translate(104,57)"/>
<path d="M0 0 C2.50037734 2.17424117 3.43628586 3.73045798 4 7 C2.35 7 0.7 7 -1 7 C-0.67 4.69 -0.34 2.38 0 0 Z " fill="#460FDC" transform="translate(139,27)"/>
<path d="M0 0 C4.43458973 1.3937282 6.87378374 3.60582235 10 7 C9.46375 6.71125 8.9275 6.4225 8.375 6.125 C5.64719516 4.83288192 2.87387282 3.91441408 0 3 C0 2.01 0 1.02 0 0 Z " fill="#4B19CF" transform="translate(123,14)"/>
<path d="M0 0 C1.98 0 3.96 0 6 0 C4.35830472 2.02054804 2.69088222 4.02043058 1 6 C0.67 6 0.34 6 0 6 C0 4.02 0 2.04 0 0 Z " fill="#4810E0" transform="translate(62,98)"/>
<path d="M0 0 C-2.97 2.475 -2.97 2.475 -6 5 C-6.33 3.35 -6.66 1.7 -7 0 C-3.86650268 -1.04449911 -3.01031744 -0.93423645 0 0 Z " fill="#460FDE" transform="translate(95,72)"/>
<path d="M0 0 C2 1 2 1 2.8125 2.75 C3.07890708 5.94688494 1.85332551 7.46025764 0 10 C-0.99 10.495 -0.99 10.495 -2 11 C-2 9.68 -2 8.36 -2 7 C-1.01 7 -0.02 7 1 7 C0.67 4.69 0.34 2.38 0 0 Z " fill="#4715C6" transform="translate(110,47)"/>
<path d="M0 0 C-1 3 -1 3 -4 5 C-6.1875 4.625 -6.1875 4.625 -8 4 C-2.25 0 -2.25 0 0 0 Z " fill="#4814D6" transform="translate(90,14)"/>
<path d="M0 0 C0.66 0.33 1.32 0.66 2 1 C0.7260411 3.03833424 -0.61061923 5.03852126 -2 7 C-2.66 7 -3.32 7 -4 7 C-3.43628586 3.73045798 -2.50037734 2.17424117 0 0 Z " fill="#4912DD" transform="translate(80,19)"/>
<path d="M0 0 C0.99 0.33 1.98 0.66 3 1 C2.6875 2.875 2.6875 2.875 2 5 C1.01 5.66 0.02 6.32 -1 7 C-1.33 6.01 -1.66 5.02 -2 4 C-1.34 4 -0.68 4 0 4 C0 2.68 0 1.36 0 0 Z " fill="#480CE7" transform="translate(97,63)"/>
<path d="M0 0 C0 0.99 0 1.98 0 3 C-0.66 3.66 -1.32 4.32 -2 5 C-4.125 4.625 -4.125 4.625 -6 4 C-3.94766315 1.7522025 -2.99332739 0.9977758 0 0 Z " fill="#430DDE" transform="translate(50,51)"/>
</svg>
